<?xml version="1.0" encoding="utf-8"?>
<!-- Svg Vector Icons : http://www.onlinewebfonts.com/icon -->
<!DOCTYPE svg PUBLIC "-//W3C//DTD SVG 1.1//EN" "http://www.w3.org/Graphics/SVG/1.1/DTD/svg11.dtd">
<svg version="1.1" xmlns="http://www.w3.org/2000/svg" xmlns:xlink="http://www.w3.org/1999/xlink" x="0px" y="0px" viewBox="0 0 1000 1000" enable-background="new 0 0 1000 1000" xml:space="preserve">
<metadata> Svg Vector Icons : http://www.onlinewebfonts.com/icon </metadata>
<g fill="white" ><g transform="translate(0.000000,390.000000) scale(0.100000,-0.100000)"><path d="M2512.6,2574.5l-53.7-46V-1100v-3628.5l53.7-46c72.9-63.3,184.1-63.3,257,0l53.7,46l5.8,3618.9l3.8,3617l-55.6,57.5C2702.5,2637.8,2591.2,2641.7,2512.6,2574.5z"/><path d="M7230.4,2574.5l-53.7-46l-5.8-3618.9l-3.8-3617l55.6-57.5c74.8-72.9,186-76.7,264.6-9.6l53.7,46V-1100v3628.5l-53.7,46C7414.5,2637.8,7303.3,2637.8,7230.4,2574.5z"/><path d="M1358.1,825.5c-99.7-71-97.8-26.8-97.8-1910.1c0-1141.1,7.7-1775.9,19.2-1821.9c42.2-149.6,197.5-195.6,310.7-94l63.3,55.6V-1100V744.9l-63.3,55.6C1519.2,863.8,1429,873.4,1358.1,825.5z"/><path d="M8409.9,800.6l-63.3-55.6V-1100v-1844.9l63.3-55.6c71-63.3,161.1-72.9,232.1-24.9c99.7,71,97.8,26.9,97.8,1910.1c0,1141.1-7.7,1775.9-19.2,1821.9C8678.3,856.2,8523,902.2,8409.9,800.6z"/><path d="M3734.2,641.4c-26.9-13.4-63.3-55.6-80.6-92.1c-32.6-61.4-34.5-182.2-34.5-1649.3s1.9-1587.9,34.5-1649.3c65.2-130.4,232.1-147.7,318.4-32.6c40.3,53.7,40.3,59.4,40.3,1693.4V549.3l-49.9,47.9C3904.9,654.8,3801.4,675.9,3734.2,641.4z"/><path d="M6093.1,641.4c-26.9-13.4-63.3-55.6-82.5-92.1c-30.7-63.3-32.6-172.6-28.8-1681.9l5.8-1612.9l46-49.9c95.9-101.6,251.2-78.6,312.6,46c32.6,61.4,34.5,180.3,34.5,1645.5c0,1653.2,0,1658.9-82.5,1726C6254.3,658.6,6146.8,668.2,6093.1,641.4z"/><path d="M232.3-327.1c-23-3.8-61.4-28.8-86.3-55.6l-46-49.9v-669.3v-669.3l51.8-51.8c92.1-90.1,280-53.7,310.7,61.4c5.8,21.1,11.5,326,11.5,675.1v638.6l-51.8,55.6C366.6-332.9,305.2-311.8,232.3-327.1z"/><path d="M4931-331c-23-9.6-59.5-42.2-82.5-71c-40.3-49.9-40.3-67.1-40.3-700v-650.1l55.6-61.4c46-51.8,69-63.3,136.2-63.3c67.1,0,90.1,11.5,136.2,63.3l55.6,61.4v652.1v652.1l-51.8,57.5C5082.5-329,4996.2-304.1,4931-331z"/><path d="M9660.3-329c-17.3-7.7-51.8-28.8-76.7-47.9l-47.9-32.6l-5.8-671.2l-5.7-669.3l57.5-63.3c47.9-53.7,69-63.3,136.2-61.4c59.4,1.9,94,15.3,132.3,53.7l49.9,49.9v671.2v671.2l-47.9,47.9C9802.2-331,9708.2-306,9660.3-329z"/></g></g>
</svg>